
<svg xmlns="http://www.w3.org/2000/svg" version="1.1" xmlns:xlink="http://www.w3.org/1999/xlink" preserveAspectRatio="none" x="0px" y="0px" width="500px" height="120px" viewBox="0 0 500 120">
<defs>
<g id="Layer0_0_FILL">
<path fill="#333333" stroke="none" d="
M 219.2 268.95
Q 216.65 268.95 214.45 269.95 212.2 270.95 210 273.05
L 210 269.4 204.05 269.4 204.05 299.2 210 299.2 210 277.75
Q 211.65 275.7 213.4 274.85 215.1 273.95 217.4 273.95 220.6 273.95 222.15 275.65 223.65 277.4 223.65 281
L 223.65 299.2 229.6 299.2 229.6 279.5
Q 229.6 274.6 226.8 271.8 224 268.95 219.2 268.95
M 196.3 269.4
L 190.35 269.4 190.35 299.2 196.3 299.2 196.3 269.4
M 195.7 258.25
Q 194.75 257.3 193.35 257.3 191.9 257.3 190.95 258.25 190 259.25 190 260.65 190 262.1 190.95 263.05 191.9 264 193.35 264 194.75 264 195.7 263.05 196.7 262.1 196.7 260.65 196.7 259.25 195.7 258.25
M 311.75 271.25
Q 309.5 269.95 307.2 269.4 304.85 268.8 302.35 268.8 297.7 268.8 295 270.95 292.35 273.15 292.35 276.9 292.35 279.75 293.85 281.75 295.4 283.75 299.6 285.85 300.35 286.3 301.75 287 306.65 289.4 306.65 291.25 306.65 292.75 305.35 293.6 304.05 294.45 301.75 294.45 299.65 294.45 297.2 293.55 294.7 292.6 292.05 290.8
L 292.05 297.15
Q 294.5 298.5 297.05 299.15 299.55 299.8 302.35 299.8 307.2 299.8 310.2 297.45 313.1 295.1 313.1 291.15 313.1 288.3 311.65 286.45 310.15 284.6 305.3 282.15
L 304.75 281.9
Q 298.5 278.85 298.5 276.6 298.5 275.35 299.55 274.7 300.55 274.05 302.4 274.05 304.45 274.05 306.75 274.8 309 275.5 311.75 277.05
L 311.75 271.25
M 256.8 293.25
Q 253.7 294.3 250.9 294.3 246.65 294.3 244.15 291.95 241.65 289.55 241.35 285.35
L 263.65 285.35 263.65 284.45
Q 263.65 277.3 259.9 273.05 256.15 268.85 249.7 268.85 243.2 268.85 239.15 273 235.1 277.15 235.1 283.85 235.1 291.1 239.3 295.5 243.5 299.85 250.55 299.85 253.9 299.85 257.05 298.9 260.2 297.95 263.15 296.05
L 263.15 290.1
Q 259.85 292.2 256.8 293.25
M 244.1 275.75
Q 246.2 273.95 249.6 273.95 252.7 273.95 254.8 275.9 256.85 277.85 257.15 281.1
L 241.35 281.1
Q 242 277.6 244.1 275.75
M 275.2 269.4
L 269.3 269.4 269.3 299.2 275.2 299.2 275.2 282.4
Q 276 278.75 277.8 276.75 279.6 274.7 282 274.7 283.45 274.7 284.8 275.3 286.1 275.85 287.55 277.1
L 290.8 271.8
Q 288.9 270.35 287.25 269.6 285.6 268.9 284 268.9 281.65 268.9 279.7 270.45 277.7 272 275.2 275.9
L 275.2 269.4
M 161.75 287
Q 159.3 289.35 159.3 292.55 159.3 295.9 161.55 297.8 163.85 299.7 167.8 299.7 170.15 299.7 172.15 299.05 174.15 298.35 176.45 296.75 176.55 298.3 177.45 299 178.25 299.7 179.95 299.7 181.75 299.7 183.4 299.05 185.05 298.4 186.65 297
L 186.65 293.4
Q 185.3 294.45 184.7 294.75 184.1 295.05 183.55 295.05 182.9 295.05 182.65 294.4 182.35 293.7 182.35 292.15
L 182.35 279.55
Q 182.35 273.9 179.75 271.4 177.15 268.85 171.4 268.85 168.2 268.85 165.35 269.8 162.55 270.75 160.25 272.6
L 160.25 278.5
Q 162.9 276.4 165.55 275.4 168.2 274.3 170.65 274.3 173.65 274.3 175 275.5 176.25 276.65 176.25 279.35 176.25 279.85 176.25 280.1 176.25 280.35 176.2 280.6
L 169.15 282.95
Q 164.2 284.6 161.75 287
M 170.15 295.35
Q 168 295.35 166.85 294.35 165.65 293.35 165.65 291.55 165.65 289.45 167.95 287.85 170.2 286.3 176.2 284.4
L 176.2 293.15
Q 174.75 294.25 173.25 294.8 171.7 295.35 170.15 295.35
M 151.6 268.9
Q 149.25 268.9 147.3 270.45 145.3 272 142.8 275.9
L 142.8 269.4 136.9 269.4 136.9 299.2 142.8 299.2 142.8 282.4
Q 143.6 278.75 145.4 276.75 147.2 274.7 149.6 274.7 151.05 274.7 152.4 275.3 153.7 275.85 155.15 277.1
L 158.4 271.8
Q 156.5 270.35 154.85 269.6 153.2 268.9 151.6 268.9
M 116.45 274.6
L 116.45 288.7
Q 116.45 295 118.55 297.4 120.55 299.8 125.6 299.8 127.45 299.8 129.05 299.45 130.6 299.05 132 298.25
L 132 292.65
Q 130.8 293.4 129.5 293.75 128.2 294.1 126.85 294.1 124.35 294.1 123.45 293.05 122.5 291.95 122.5 288.25
L 122.5 274.6 131.8 274.6 131.8 269.4 122.5 269.4 122.5 262.5 121.8 262.5 111.4 274 111.4 274.6 116.45 274.6 Z"/>
</g>

<g id="Layer0_0_MEMBER_0_FILL">
<path fill="#333333" stroke="none" d="
M 85.5 273
Q 81.45 277.15 81.45 283.85 81.45 291.1 85.65 295.5 89.85 299.85 96.9 299.85 100.25 299.85 103.4 298.9 106.55 297.95 109.5 296.05
L 109.5 290.1
Q 106.2 292.2 103.15 293.25 100.05 294.3 97.25 294.3 93 294.3 90.5 291.95 88 289.55 87.7 285.35
L 110 285.35 110 284.45
Q 110 277.3 106.25 273.05 102.5 268.85 96.05 268.85 89.55 268.85 85.5 273
M 87.7 281.1
Q 88.35 277.6 90.45 275.75 92.55 273.95 95.95 273.95 99.05 273.95 101.15 275.9 103.2 277.85 103.5 281.1
L 87.7 281.1 Z"/>
</g>

<g id="Layer0_1_FILL">
<path fill="#29A8E3" stroke="none" d="
M 95.65 265.8
Q 103.05 265.8 107.35 270.7 108.3 271.7 109 272.9 109 272.15 109.55 271.6
L 119.95 260.1
Q 120.1 259.9 120.3 259.8 120.45 259.7 120.6 259.65 120.7 259.6 120.85 259.55
L 79.6 259.55 79.6 277.95
Q 80.65 273.65 83.7 270.55 88.25 265.8 95.65 265.8 Z"/>
</g>

<g id="Layer0_2_FILL">
<path fill="#49C349" stroke="none" d="
M 125.25 259.25
L 125.25 266.4 132.05 266.4 132.05 259.25 125.25 259.25 Z"/>
</g>
</defs>

<g transform="matrix( 2.02783203125, 0, 0, 2.02783203125, -149.05,-509) ">
<use xlink:href="#Layer0_0_FILL"/>
</g>

<g transform="matrix( 2.0244140625, 0, 0, 2.0244140625, -146.8,-507.2) ">
<use xlink:href="#Layer0_0_MEMBER_0_FILL"/>
</g>

<g transform="matrix( 2.02783203125, 0, 0, 2.02783203125, -149.05,-509) ">
<use xlink:href="#Layer0_1_FILL"/>
</g>

<g transform="matrix( 2.02783203125, 0, 0, 2.02783203125, -149.05,-509) ">
<use xlink:href="#Layer0_2_FILL"/>
</g>
</svg>
